HIERARCHY
ROOT joint_Root
{
	OFFSET 0.0 0.0 0.0
	CHANNELS 6 Xposition Yposition Zposition Zrotation Xrotation Yrotation 
	JOINT Hips
	{
		OFFSET -17.1583 93.1646 452.98
		CHANNELS 6 Xposition Yposition Zposition Zrotation Xrotation Yrotation 
		JOINT Spine
		{
			OFFSET 15.7357 0.0 0.0
			CHANNELS 6 Xposition Yposition Zposition Zrotation Xrotation Yrotation 
			JOINT Chest
			{
				OFFSET 8.98455 -0.406207 0.0
				CHANNELS 6 Xposition Yposition Zposition Zrotation Xrotation Yrotation 
				JOINT Neck
				{
					OFFSET 16.3773 0.0 0.0
					CHANNELS 6 Xposition Yposition Zposition Zrotation Xrotation Yrotation 
					JOINT Head
					{
						OFFSET 6.45672 0.0 0.0
						CHANNELS 6 Xposition Yposition Zposition Zrotation Xrotation Yrotation 
						End Site
						{
							OFFSET 0.0 0.0 0.0
						}
					}
				}
				JOINT Shoulder_L
				{
					OFFSET 12.9942 -0.242716 4.98039
					CHANNELS 6 Xposition Yposition Zposition Zrotation Xrotation Yrotation 
					JOINT UpperArm_L
					{
						OFFSET 5.34809 0.0 0.0
						CHANNELS 6 Xposition Yposition Zposition Zrotation Xrotation Yrotation 
						JOINT LowerArm_L
						{
							OFFSET 24.3286 1.87007e-05 0.0
							CHANNELS 6 Xposition Yposition Zposition Zrotation Xrotation Yrotation 
							JOINT Hand_L
							{
								OFFSET 22.2916 0.0 0.0
								CHANNELS 6 Xposition Yposition Zposition Zrotation Xrotation Yrotation 
								End Site
								{
									OFFSET 0.0 0.0 0.0
								}
							}
						}
					}
				}
				JOINT Shoulder_R
				{
					OFFSET 12.9945 -0.242716 -4.98039
					CHANNELS 6 Xposition Yposition Zposition Zrotation Xrotation Yrotation 
					JOINT UpperArm_R
					{
						OFFSET -5.34813 0.0 0.0
						CHANNELS 6 Xposition Yposition Zposition Zrotation Xrotation Yrotation 
						JOINT LowerArm_R
						{
							OFFSET -24.3289 0.000322201 0.0
							CHANNELS 6 Xposition Yposition Zposition Zrotation Xrotation Yrotation 
							JOINT Hand_R
							{
								OFFSET -22.2915 -0.000108084 0.0
								CHANNELS 6 Xposition Yposition Zposition Zrotation Xrotation Yrotation 
								End Site
								{
									OFFSET 0.0 0.0 0.0
								}
							}
						}
					}
				}
			}
		}
		JOINT UpperLeg_L
		{
			OFFSET -2.19248 -6.46944 0.0
			CHANNELS 6 Xposition Yposition Zposition Zrotation Xrotation Yrotation 
			JOINT LowerLeg_L
			{
				OFFSET 39.0811 0.0 -1.23785e-05
				CHANNELS 6 Xposition Yposition Zposition Zrotation Xrotation Yrotation 
				JOINT Foot_L
				{
					OFFSET 40.9854 0.0 -1.26872e-05
					CHANNELS 6 Xposition Yposition Zposition Zrotation Xrotation Yrotation 
					JOINT Toes_L
					{
						OFFSET 11.7543 0.0 0.0
						CHANNELS 6 Xposition Yposition Zposition Zrotation Xrotation Yrotation 
						End Site
						{
							OFFSET 0.0 0.0 0.0
						}
					}
				}
			}
		}
		JOINT UpperLeg_R
		{
			OFFSET -2.19251 6.46944 0.0
			CHANNELS 6 Xposition Yposition Zposition Zrotation Xrotation Yrotation 
			JOINT LowerLeg_R
			{
				OFFSET -39.0811 -0.00228153 -0.0401928
				CHANNELS 6 Xposition Yposition Zposition Zrotation Xrotation Yrotation 
				JOINT Foot_R
				{
					OFFSET -40.9854 0.0 0.0
					CHANNELS 6 Xposition Yposition Zposition Zrotation Xrotation Yrotation 
					JOINT Toes_R
					{
						OFFSET -11.7543 0.0 0.0
						CHANNELS 6 Xposition Yposition Zposition Zrotation Xrotation Yrotation 
						End Site
						{
							OFFSET 0.0 0.0 0.0
						}
					}
				}
			}
		}
	}
}
MOTION
Frames:	5
Frame Time:	0.0333333
0.000000 0.000000 0.000000 0.000000 0.000000 -0.000000 -0.427550 82.997700 -44.583200 83.594000 -2.538080 -6.119780 15.735700 0.000005 -0.000001 89.681600 82.478300 -86.151000 8.984550 -0.406207 -0.000000 7.289870 -0.097647 7.059880 16.377300 -0.000001 -0.000001 -6.961370 4.076170 -3.323180 6.456720 -0.000001 -0.000000 -14.848300 4.799320 -4.774840 12.994200 -0.242716 4.980390 -93.408700 10.231500 -71.462300 5.348090 -0.000007 -0.000001 -58.343400 -2.209250 4.472830 24.328600 0.000019 0.000005 11.786900 31.962300 -21.520300 22.291600 -0.000001 0.000005 1.080020 4.963230 8.089900 12.994500 -0.242716 -4.980390 88.778700 4.103630 -73.410100 -5.348130 -0.000001 -0.000004 -53.256100 -4.160550 -4.446600 -24.328900 0.000322 -0.000009 2.548120 8.258320 -17.291000 -22.291500 -0.000108 -0.000004 2.598840 5.181620 3.173090 -2.192480 -6.469440 -0.000000 -172.440000 -6.134070 -37.990100 39.081100 -0.000007 -0.000012 0.082607 0.037379 114.339000 40.985400 -0.000006 -0.000013 -6.248440 1.014990 -41.093600 11.754300 -0.000000 0.000003 0.002461 0.075247 -13.525000 -2.192510 6.469440 -0.000001 -169.566000 3.715440 158.521000 -39.081100 -0.002282 -0.040193 -0.023571 0.018149 55.886900 -40.985400 0.000008 0.000006 -3.354260 -0.778223 -92.409800 -11.754300 -0.000006 -0.000006 -0.000855 0.180991 -9.231590
0.000000 0.000000 0.000000 0.000000 0.000000 -0.000000 0.080432 84.973400 -34.728600 86.829800 -3.559930 -7.448470 15.735700 0.000005 -0.000001 98.216500 83.120500 -96.305800 8.984550 -0.406207 -0.000000 5.824960 1.929010 3.719090 16.377300 -0.000001 -0.000001 -6.595290 3.286580 -2.457320 6.456720 -0.000001 -0.000000 -14.240500 2.732020 -3.372740 12.994200 -0.242716 4.980390 -93.337900 9.650440 -70.816300 5.348090 -0.000007 -0.000001 -54.061400 -12.505000 7.831470 24.328600 0.000019 0.000005 5.443760 36.774400 -9.045370 22.291600 -0.000001 0.000005 1.253300 4.744590 12.343600 12.994500 -0.242716 -4.980390 88.728500 4.418570 -73.928500 -5.348130 -0.000001 -0.000004 -53.168800 5.857150 -6.201770 -24.328900 0.000322 -0.000009 -0.911095 -1.442400 -32.073900 -22.291500 -0.000108 -0.000004 4.620970 5.329690 -0.761954 -2.192480 -6.469440 -0.000000 -177.075000 -4.893870 -46.938100 39.081100 -0.000007 -0.000012 -0.031623 -0.011439 109.905000 40.985400 -0.000006 -0.000013 -6.214500 0.348383 -50.277600 11.754300 -0.000000 0.000003 0.002469 0.076675 -13.467100 -2.192510 6.469440 -0.000001 -174.991000 4.861760 167.668000 -39.081100 -0.002282 -0.040193 -0.048151 0.046699 47.747300 -40.985400 0.000008 0.000006 -5.002370 2.684540 -87.940100 -11.754300 -0.000006 -0.000006 0.002265 0.058697 -14.192400
0.000000 0.000000 0.000000 0.000000 0.000000 -0.000000 0.949431 88.086000 -24.519000 90.683700 -5.843100 -10.131500 15.735700 0.000005 -0.000001 110.237000 84.034300 -110.312000 8.984550 -0.406207 -0.000000 3.439150 4.125010 -0.274347 16.377300 -0.000001 -0.000001 -6.449640 2.721980 -1.474110 6.456720 -0.000001 -0.000000 -13.384100 1.092020 -2.498860 12.994200 -0.242716 4.980390 -92.955900 8.292480 -70.301600 5.348090 -0.000007 -0.000001 -48.262600 -19.090300 13.041900 24.328600 0.000019 0.000005 0.709677 35.475400 -1.221290 22.291600 -0.000001 0.000005 2.336300 4.453200 17.357500 12.994500 -0.242716 -4.980390 89.139500 3.163850 -74.778700 -5.348130 -0.000001 -0.000004 -55.278200 9.840440 -7.164740 -24.328900 0.000322 -0.000009 -3.281150 -3.000100 -47.575300 -22.291500 -0.000108 -0.000004 6.790260 5.428600 -3.878530 -2.192480 -6.469440 -0.000000 177.545000 -3.635310 -53.003600 39.081100 -0.000007 -0.000012 -0.049020 -0.007192 98.359400 40.985400 -0.000006 -0.000013 -5.897180 -2.341730 -58.659300 11.754300 -0.000000 0.000003 0.002480 0.079273 -13.361800 -2.192510 6.469440 -0.000001 178.357000 5.645860 175.477000 -39.081100 -0.002282 -0.040193 -0.034972 0.052531 36.067300 -40.985400 0.000008 0.000006 -6.132040 5.156860 -74.642200 -11.754300 -0.000006 -0.000006 -0.017835 -0.154989 -22.901600
0.000000 0.000000 0.000000 0.000000 0.000000 -0.000000 1.589930 91.218100 -14.525500 93.763500 -7.458670 -13.933500 15.735700 0.000005 -0.000001 125.841000 85.108400 -127.571000 8.984550 -0.406207 -0.000000 0.259391 5.840160 -3.473810 16.377300 -0.000001 -0.000001 -6.249970 2.168910 -0.902377 6.456720 -0.000001 -0.000000 -12.359800 -0.434039 -1.595530 12.994200 -0.242716 4.980390 -92.273600 6.277490 -70.044000 5.348090 -0.000007 -0.000001 -43.879200 -20.472700 18.809700 24.328600 0.000019 0.000005 0.000061 32.522400 -0.000000 22.291600 -0.000001 0.000005 3.736200 4.032930 23.745600 12.994500 -0.242716 -4.980390 89.638200 1.412370 -75.633600 -5.348130 -0.000001 -0.000004 -58.399300 11.492100 -7.947380 -24.328900 0.000322 -0.000009 -6.981320 -4.195070 -59.119800 -22.291500 -0.000108 -0.000004 8.043100 5.598400 -11.290300 -2.192480 -6.469440 -0.000000 174.381000 -1.624920 -57.341800 39.081100 -0.000007 -0.000012 -0.017764 0.002494 82.031900 40.985400 -0.000006 -0.000013 -5.252580 -4.240380 -63.424400 11.754300 -0.000000 0.000003 0.002476 0.078261 -13.402800 -2.192510 6.469440 -0.000001 173.779000 7.231240 179.933000 -39.081100 -0.002282 -0.040193 0.008933 -0.012196 24.742900 -40.985400 0.000008 0.000006 -2.798840 4.695550 -54.697600 -11.754300 -0.000006 -0.000006 -0.071112 -0.366310 -31.745300
0.000000 0.000000 0.000000 0.000000 0.000000 -0.000000 1.385250 93.459800 -4.269500 93.262300 -6.512840 -14.881200 15.735700 0.000005 -0.000001 134.145000 85.150100 -136.022000 8.984550 -0.406207 -0.000000 -0.688596 6.892630 -3.714360 16.377300 -0.000001 -0.000001 -6.129800 1.517610 -0.781241 6.456720 -0.000001 -0.000000 -12.298400 -2.431060 -0.909912 12.994200 -0.242716 4.980390 -92.071600 5.534530 -69.441700 5.348090 -0.000007 -0.000001 -39.678600 -20.632800 21.707500 24.328600 0.000019 0.000005 0.000092 33.296100 -0.000000 22.291600 -0.000001 0.000005 7.439420 3.683190 28.540100 12.994500 -0.242716 -4.980390 89.737300 1.058180 -76.057300 -5.348130 -0.000001 -0.000004 -60.386600 11.746100 -8.787180 -24.328900 0.000322 -0.000009 -13.283200 -5.796320 -66.830800 -22.291500 -0.000108 -0.000004 8.106720 5.672470 -17.765500 -2.192480 -6.469440 -0.000000 176.862000 0.519676 -55.704200 39.081100 -0.000007 -0.000012 0.004106 -0.002068 63.213900 40.985400 -0.000006 -0.000013 -5.376560 -1.499820 -66.457500 11.754300 -0.000000 0.000003 0.002451 0.073643 -13.590000 -2.192510 6.469440 -0.000001 173.814000 9.059940 -174.746000 -39.081100 -0.002282 -0.040193 0.031564 -0.090405 17.346400 -40.985400 0.000008 0.000006 -2.340060 2.874930 -34.633800 -11.754300 -0.000006 -0.000006 -0.005582 -0.066988 -19.299100
